<svg width="38" height="22" viewBox="0 0 38 22" fill="none" xmlns="http://www.w3.org/2000/svg" xmlns:xlink="http://www.w3.org/1999/xlink">
<path d="M35.054,-0.667L32.846,-0.667C31.627,-0.667 30.639,0.229 30.639,1.333L30.639,18.667C30.639,19.771 31.627,20.667 32.846,20.667L35.054,20.667C36.273,20.667 37.262,19.771 37.262,18.667L37.262,1.333C37.262,0.229 36.273,-0.667 35.054,-0.667ZM22.542,4L24.75,4C25.969,4 26.958,4.895 26.958,6L26.958,18.667C26.958,19.771 25.969,20.667 24.75,20.667L22.542,20.667C21.323,20.667 20.335,19.771 20.335,18.667L20.335,6C20.335,4.895 21.323,4 22.542,4ZM14.446,8.667L12.238,8.667C11.019,8.667 10.03,9.562 10.03,10.667L10.03,18.667C10.03,19.771 11.019,20.667 12.238,20.667L14.446,20.667C15.665,20.667 16.653,19.771 16.653,18.667L16.653,10.667C16.653,9.562 15.665,8.667 14.446,8.667ZM4.142,12.667L1.934,12.667C0.715,12.667 -0.274,13.562 -0.274,14.667L-0.274,18.667C-0.274,19.771 0.715,20.667 1.934,20.667L4.142,20.667C5.361,20.667 6.349,19.771 6.349,18.667L6.349,14.667C6.349,13.562 5.361,12.667 4.142,12.667Z" clip-rule="evenodd" fill-rule="evenodd" fill="#181725"/>
</svg>
