<svg width="38" height="22" viewBox="0 0 38 22" fill="none" xmlns="http://www.w3.org/2000/svg" xmlns:xlink="http://www.w3.org/1999/xlink">
<path d="M34.948,-0.999L32.741,-0.999C31.521,-0.999 30.533,-0.104 30.533,1.001L30.533,18.334C30.533,19.439 31.521,20.334 32.741,20.334L34.948,20.334C36.167,20.334 37.156,19.439 37.156,18.334L37.156,1.001C37.156,-0.104 36.167,-0.999 34.948,-0.999ZM22.436,3.667L24.644,3.667C25.863,3.667 26.852,4.563 26.852,5.667L26.852,18.334C26.852,19.439 25.863,20.334 24.644,20.334L22.436,20.334C21.217,20.334 20.229,19.439 20.229,18.334L20.229,5.667C20.229,4.563 21.217,3.667 22.436,3.667ZM14.34,8.334L12.132,8.334C10.913,8.334 9.925,9.23 9.925,10.334L9.925,18.334C9.925,19.439 10.913,20.334 12.132,20.334L14.34,20.334C15.559,20.334 16.548,19.439 16.548,18.334L16.548,10.334C16.548,9.23 15.559,8.334 14.34,8.334ZM4.036,12.334L1.828,12.334C0.609,12.334 -0.379,13.23 -0.379,14.334L-0.379,18.334C-0.379,19.439 0.609,20.334 1.828,20.334L4.036,20.334C5.255,20.334 6.244,19.439 6.244,18.334L6.244,14.334C6.244,13.23 5.255,12.334 4.036,12.334Z" clip-rule="evenodd" fill-rule="evenodd" fill="#000000"/>
</svg>
