<svg width="18" height="28" viewBox="0 0 18 28" fill="none" xmlns="http://www.w3.org/2000/svg" xmlns:xlink="http://www.w3.org/1999/xlink">
<path d="M15.827,23.584C16.221,23.984 16.44,24.51 16.418,25.058C16.418,25.605 16.199,26.11 15.783,26.51C15.389,26.889 14.841,27.121 14.272,27.121C13.702,27.121 13.154,26.932 12.738,26.553L0.341,14.637C0.144,14.447 -0.01,14.216 -0.119,13.963C-0.229,13.71 -0.294,13.437 -0.294,13.163C-0.294,12.889 -0.229,12.616 -0.119,12.342C-0.01,12.089 0.144,11.858 0.341,11.668L12.738,-0.247C12.935,-0.437 13.176,-0.605 13.439,-0.711C13.724,-0.816 14.009,-0.879 14.293,-0.879C14.578,-0.879 14.885,-0.837 15.148,-0.732C15.411,-0.626 15.651,-0.458 15.871,-0.268C16.068,-0.079 16.221,0.174 16.33,0.426C16.462,0.679 16.506,0.953 16.506,1.247C16.506,1.521 16.44,1.795 16.33,2.047C16.221,2.3 16.046,2.532 15.827,2.742L4.984,13.163L7.043,15.121L15.827,23.584Z" transform="rotate(-180 8.106 13.121)" fill="#181725" stroke="#181725" stroke-width="0.2" stroke-miterlimit="3.999327"/>
</svg>
