<svg width="18" height="30" viewBox="0 0 18 30" fill="none" xmlns="http://www.w3.org/2000/svg" xmlns:xlink="http://www.w3.org/1999/xlink">
<path d="M15.423,25.184C15.817,25.584 16.036,26.111 16.014,26.658C16.014,27.205 15.795,27.711 15.379,28.111C14.985,28.49 14.437,28.721 13.868,28.721C13.298,28.721 12.751,28.532 12.335,28.153L-0.063,16.237C-0.26,16.048 -0.413,15.816 -0.523,15.563C-0.632,15.311 -0.698,15.037 -0.698,14.763C-0.698,14.49 -0.632,14.216 -0.523,13.942C-0.413,13.69 -0.26,13.458 -0.063,13.269L12.335,1.353C12.532,1.163 12.773,0.995 13.035,0.89C13.32,0.784 13.605,0.721 13.89,0.721C14.174,0.721 14.481,0.763 14.744,0.869C15.007,0.974 15.248,1.142 15.467,1.332C15.664,1.521 15.817,1.774 15.927,2.026C16.058,2.279 16.102,2.553 16.102,2.848C16.102,3.121 16.036,3.395 15.927,3.648C15.817,3.9 15.642,4.132 15.423,4.342L4.581,14.763L6.64,16.721L15.423,25.184Z" transform="rotate(360 7.702 14.721)" fill="#181725" stroke="#181725" stroke-width="0.2" stroke-miterlimit="3.999327"/>
</svg>
