<svg width="18" height="30" viewBox="0 0 18 30" fill="none" xmlns="http://www.w3.org/2000/svg" xmlns:xlink="http://www.w3.org/1999/xlink">
<path d="M16.938,25.186C17.333,25.586 17.552,26.112 17.53,26.659C17.53,27.207 17.311,27.712 16.895,28.112C16.5,28.491 15.953,28.722 15.383,28.722C14.814,28.722 14.266,28.533 13.85,28.154L1.453,16.238C1.256,16.049 1.102,15.817 0.993,15.565C0.883,15.312 0.817,15.038 0.817,14.765C0.817,14.491 0.883,14.217 0.993,13.943C1.102,13.691 1.256,13.459 1.453,13.27L13.85,1.354C14.047,1.165 14.288,0.996 14.551,0.891C14.836,0.786 15.12,0.722 15.405,0.722C15.69,0.722 15.997,0.765 16.259,0.87C16.522,0.975 16.763,1.143 16.982,1.333C17.179,1.522 17.333,1.775 17.442,2.028C17.574,2.28 17.617,2.554 17.617,2.849C17.617,3.122 17.552,3.396 17.442,3.649C17.333,3.901 17.157,4.133 16.938,4.343L6.096,14.765L8.155,16.722L16.938,25.186Z" transform="rotate(360 9.217 14.722)" fill="#181725" stroke="#181725" stroke-width="0.2" stroke-miterlimit="3.999327"/>
</svg>
