<svg width="36" height="6" viewBox="0 0 36 6" fill="none" xmlns="http://www.w3.org/2000/svg" xmlns:xlink="http://www.w3.org/1999/xlink">
<path d="M34.128,2.944C34.128,3.696 33.84,4.423 33.301,4.949C32.775,5.487 32.048,5.788 31.296,5.788L19.967,5.788L14.29,5.788L2.96,5.788C2.209,5.788 1.482,5.487 0.955,4.949C0.429,4.423 0.128,3.696 0.128,2.944C0.128,2.193 0.429,1.479 0.955,0.94C1.482,0.414 2.209,0.113 2.96,0.113L14.29,0.113L19.967,0.113L31.296,0.113C32.048,0.113 32.775,0.414 33.301,0.94C33.84,1.479 34.128,2.193 34.128,2.944Z" fill="#B3B3B3"/>
</svg>
