<svg width="38" height="38" viewBox="0 0 38 38" fill="none" xmlns="http://www.w3.org/2000/svg" xmlns:xlink="http://www.w3.org/1999/xlink">
<path d="M20.892,8.746L20.892,23.624C20.892,24.323 20.614,24.994 20.12,25.489C19.625,25.983 18.955,26.261 18.255,26.261C17.556,26.261 16.885,25.983 16.391,25.489C15.896,24.994 15.618,24.323 15.618,23.624L15.618,8.746L12.662,11.705C12.167,12.2 11.496,12.478 10.796,12.477C10.096,12.477 9.425,12.199 8.93,11.704C8.435,11.209 8.157,10.537 8.157,9.837C8.158,9.137 8.436,8.466 8.931,7.971L16.391,0.517C16.635,0.271 16.926,0.076 17.246,-0.057C17.566,-0.19 17.909,-0.259 18.255,-0.259C18.602,-0.259 18.945,-0.19 19.265,-0.057C19.585,0.076 19.875,0.271 20.119,0.517L27.579,7.974C27.824,8.219 28.019,8.51 28.151,8.83C28.284,9.151 28.352,9.494 28.352,9.84C28.352,10.187 28.283,10.53 28.15,10.85C28.018,11.171 27.823,11.461 27.578,11.706C27.333,11.951 27.042,12.146 26.721,12.278C26.401,12.411 26.058,12.479 25.711,12.479C25.365,12.479 25.022,12.41 24.701,12.278C24.381,12.145 24.09,11.95 23.845,11.705L20.892,8.746ZM7.708,15.566C8.407,15.566 9.078,15.843 9.572,16.338C10.067,16.832 10.344,17.503 10.344,18.202C10.344,18.902 10.067,19.572 9.572,20.067C9.078,20.562 8.407,20.839 7.708,20.839L5.071,20.839L5.071,31.387L31.44,31.387L31.44,20.839L28.803,20.839C28.103,20.839 27.433,20.562 26.938,20.067C26.444,19.572 26.166,18.902 26.166,18.202C26.166,17.503 26.444,16.832 26.938,16.338C27.433,15.843 28.103,15.566 28.803,15.566L31.44,15.566C32.838,15.566 34.18,16.121 35.169,17.11C36.158,18.099 36.714,19.441 36.714,20.839L36.714,31.387C36.714,32.786 36.158,34.127 35.169,35.116C34.18,36.105 32.838,36.661 31.44,36.661L5.071,36.661C3.672,36.661 2.331,36.105 1.342,35.116C0.353,34.127 -0.203,32.786 -0.203,31.387L-0.203,20.839C-0.203,19.441 0.353,18.099 1.342,17.11C2.331,16.121 3.672,15.566 5.071,15.566L7.708,15.566Z" fill="#181725" stroke="#FFFFFF" stroke-width="0.3" stroke-miterlimit="3.999327"/>
</svg>
