<svg width="38" height="38" viewBox="0 0 38 38" fill="none" xmlns="http://www.w3.org/2000/svg" xmlns:xlink="http://www.w3.org/1999/xlink">
<path d="M16.013,27.55C17.589,27.55 19.149,27.236 20.605,26.626C22.061,26.015 23.384,25.12 24.498,23.992C25.612,22.864 26.496,21.525 27.099,20.051C27.702,18.578 28.013,16.998 28.013,15.403C28.013,13.808 27.702,12.228 27.099,10.754C26.496,9.28 25.612,7.941 24.498,6.813C23.384,5.685 22.061,4.791 20.605,4.18C19.149,3.57 17.589,3.256 16.013,3.256C12.83,3.256 9.778,4.535 7.527,6.813C5.277,9.091 4.013,12.181 4.013,15.403C4.013,18.625 5.277,21.714 7.527,23.992C9.778,26.27 12.83,27.55 16.013,27.55ZM28.653,25.335L35.813,32.583C36.004,32.77 36.156,32.994 36.261,33.241C36.365,33.488 36.42,33.753 36.422,34.022C36.424,34.291 36.374,34.558 36.273,34.806C36.172,35.055 36.023,35.281 35.836,35.471C35.648,35.661 35.424,35.811 35.178,35.913C34.933,36.014 34.669,36.065 34.404,36.063C34.138,36.06 33.876,36.004 33.632,35.898C33.388,35.792 33.167,35.637 32.983,35.444L25.823,28.196C22.608,30.722 18.562,31.913 14.51,31.527C10.458,31.14 6.704,29.205 4.012,26.115C1.32,23.025 -0.108,19.013 0.02,14.895C0.147,10.777 1.82,6.863 4.698,3.949C7.576,1.036 11.443,-0.658 15.511,-0.787C19.579,-0.916 23.542,0.529 26.595,3.255C29.647,5.98 31.559,9.78 31.941,13.882C32.323,17.984 31.147,22.079 28.651,25.333L28.653,25.335Z" fill="#181B19"/>
</svg>
