<svg width="46" height="40" viewBox="0 0 46 40" fill="none" xmlns="http://www.w3.org/2000/svg" xmlns:xlink="http://www.w3.org/1999/xlink">
<path d="M7.494,18.234L23.142,33.882L38.791,18.234C40.174,16.85 40.951,14.974 40.951,13.017C40.951,11.06 40.174,9.184 38.791,7.801C38.106,7.116 37.292,6.572 36.397,6.201C35.502,5.831 34.543,5.64 33.574,5.64C31.618,5.64 29.741,6.417 28.358,7.801L23.142,13.016L17.927,7.803C16.54,6.438 14.67,5.677 12.724,5.684C10.778,5.692 8.914,6.468 7.538,7.844C6.162,9.22 5.385,11.084 5.377,13.03C5.368,14.976 6.13,16.846 7.494,18.234ZM21.404,4.321L23.142,6.06L24.881,4.321C26.021,3.171 27.376,2.258 28.87,1.634C30.364,1.009 31.966,0.686 33.585,0.682C35.204,0.679 36.808,0.995 38.305,1.613C39.801,2.231 41.161,3.138 42.306,4.283C43.45,5.428 44.358,6.788 44.976,8.284C45.594,9.781 45.91,11.384 45.907,13.003C45.903,14.622 45.58,16.225 44.955,17.719C44.331,19.212 43.417,20.568 42.267,21.708L24.883,39.095C24.655,39.323 24.384,39.505 24.085,39.628C23.787,39.752 23.467,39.816 23.144,39.816C22.821,39.816 22.501,39.752 22.202,39.628C21.904,39.505 21.632,39.323 21.404,39.095L4.017,21.71C2.852,20.574 1.924,19.218 1.286,17.72C0.649,16.223 0.316,14.613 0.305,12.986C0.295,11.358 0.608,9.745 1.226,8.239C1.844,6.733 2.754,5.365 3.905,4.214C5.056,3.063 6.424,2.152 7.93,1.534C9.435,0.916 11.049,0.603 12.676,0.613C14.304,0.623 15.913,0.956 17.411,1.593C18.909,2.23 20.265,3.158 21.402,4.324L21.404,4.321Z" fill="#7C7C7C"/>
</svg>
