<svg width="22" height="38" viewBox="0 0 22 38" fill="none" xmlns="http://www.w3.org/2000/svg" xmlns:xlink="http://www.w3.org/1999/xlink">
<path d="M19.32,31.654C19.789,32.168 20.05,32.845 20.024,33.548C20.024,34.252 19.763,34.902 19.268,35.416C18.798,35.903 18.146,36.201 17.468,36.201C16.79,36.201 16.139,35.957 15.643,35.47L0.884,20.15C0.65,19.906 0.467,19.609 0.337,19.284C0.206,18.959 0.128,18.607 0.128,18.255C0.128,17.903 0.206,17.551 0.337,17.199C0.467,16.875 0.65,16.577 0.884,16.333L15.643,1.013C15.878,0.769 16.165,0.553 16.478,0.418C16.817,0.282 17.156,0.201 17.495,0.201C17.834,0.201 18.199,0.255 18.511,0.39C18.824,0.526 19.111,0.742 19.372,0.986C19.607,1.23 19.789,1.554 19.92,1.879C20.076,2.204 20.128,2.556 20.128,2.935C20.128,3.287 20.05,3.639 19.92,3.963C19.789,4.288 19.581,4.586 19.32,4.857L6.412,18.255L8.864,20.772L19.32,31.654Z" fill="#181725"/>
</svg>
